<svg width="58" height="65" viewBox="0 0 58 65" fill="none" xmlns="http://www.w3.org/2000/svg">
<path d="M12.936 42.426V41.628C14.672 41.544 15.848 41.096 16.464 40.284C17.08 39.472 17.654 37.596 18.186 34.656L22.218 11.43C16.478 11.906 12.04 13.152 8.904 15.168C5.796 17.156 4.242 19.76 4.242 22.98C4.242 24.436 4.746 25.668 5.754 26.676C6.454 27.348 7.378 27.866 8.526 28.23C9.674 28.566 10.612 28.762 11.34 28.818C12.096 28.846 12.502 28.832 12.558 28.776V29.658C9.254 29.658 6.804 28.874 5.208 27.306C4.032 26.214 3.444 24.772 3.444 22.98C3.444 18.976 5.53 15.882 9.702 13.698C13.902 11.514 19.824 10.422 27.468 10.422C32.228 10.422 35.602 11.066 37.59 12.354C39.606 13.642 40.614 15.406 40.614 17.646C40.614 19.858 39.844 21.762 38.304 23.358C36.792 24.954 34.79 26.186 32.298 27.054C35.938 34.614 38.276 39.15 39.312 40.662C40.348 42.202 41.594 42.972 43.05 42.972C43.918 42.972 44.688 42.692 45.36 42.132C46.06 41.6 46.55 40.872 46.83 39.948H47.88C46.984 42.86 44.786 44.316 41.286 44.316C39.074 44.316 37.24 43.784 35.784 42.72C34.356 41.684 33.152 40.102 32.172 37.974L27.636 28.146C26.516 28.258 25.69 28.314 25.158 28.314C25.074 28.734 24.948 29.448 24.78 30.456C24.612 31.464 24.472 32.22 24.36 32.724C23.8 35.748 22.386 38.114 20.118 39.822C17.878 41.558 15.484 42.426 12.936 42.426ZM39.522 17.772C39.522 13.488 35.63 11.304 27.846 11.22L25.326 27.39C29.302 27.278 32.662 26.284 35.406 24.408C38.15 22.504 39.522 20.292 39.522 17.772Z" fill="black"/>
<path d="M57.1466 34.6238L47.7161 40.0685" stroke="black" stroke-linecap="round" stroke-linejoin="round"/>
<path d="M57.1465 34.6235L48.79 46.8782L47.716 40.0682L42.3553 35.733L57.1465 34.6235Z" stroke="black" stroke-linecap="round" stroke-linejoin="round"/>
</svg>
